# xmcd
#
# Track frame offsets: 
#        150
#        19794
#        43677
#        59885
#        78645
#        95512
#        113300
#        130612
#        150757
#        170045
#
# Disc length: 2501 seconds
#
# Revision: 0
# Processed by: cddbd v1.5.1PL2 Copyright (c) Steve Scherf et al.
# Submitted via: ExactAudioCopy v0.95a5
#
DISCID=7609c30a
DTITLE=Charles Wilson - It's Sweet On The Backstreet
DYEAR=1995
DGENRE=Blues
TTITLE0=In The Room Next To The Room
TTITLE1=I've Got Trouble In My Bedroom
TTITLE2=Homewreckers
TTITLE3=Keepin' Up With The Joneses
TTITLE4=Over At Fannie Mae's
TTITLE5=It's Sweet On The Backstreet
TTITLE6=Old Man Jody's Son
TTITLE7=Slow Down, Lowdown Kind Of Love
TTITLE8=I Wanna Do You Tonight
TTITLE9=Wife, Woman And Lover
EXTD=
EXTT0=
EXTT1=
EXTT2=
EXTT3=
EXTT4=
EXTT5=
EXTT6=
EXTT7=
EXTT8=
EXTT9=
PLAYORDER=
